<svg xmlns="http://www.w3.org/2000/svg" width="px" height="20" viewBox="0 0 15 20"><path d="M7.969.254C3.96.254 0 2.926 0 7.25c0 2.75 1.547 4.313 2.484 4.313.387 0 .61-1.079.61-1.383 0-.364-.926-1.137-.926-2.649 0-3.14 2.39-5.367 5.484-5.367 2.66 0 4.63 1.512 4.63 4.29 0 2.073-.833 5.964-3.528 5.964-.973 0-1.805-.703-1.805-1.711 0-1.477 1.031-2.906 1.031-4.43 0-2.586-3.668-2.117-3.668 1.008 0 .656.083 1.383.375 1.98-.539 2.32-1.64 5.778-1.64 8.169 0 .738.105 1.464.176 2.203.132.148.066.133.27.058C5.46 17 5.39 16.473 6.28 12.945c.48.914 1.723 1.407 2.707 1.407 4.149 0 6.012-4.043 6.012-7.688 0-3.879-3.352-6.41-7.031-6.41zm0 0" id="surface1"/></svg>