
<svg width="18px" height="18px" viewBox="0 0 18 18" version="1.1">
<g id="surface1">
<path style=" stroke:none;fill-rule:nonzero;fill:rgb(0%,0%,0%);fill-opacity:1;" d="M 11.914062 5.285156 L 16.402344 6.03125 C 16.773438 6.089844 17.085938 6.382812 17.207031 6.789062 C 17.324219 7.195312 17.226562 7.640625 16.960938 7.941406 L 13.703125 11.535156 L 14.472656 16.6875 C 14.535156 17.109375 14.382812 17.539062 14.070312 17.789062 C 13.757812 18.039062 13.351562 18.070312 13.015625 17.871094 L 9.003906 15.460938 L 4.992188 17.871094 C 4.65625 18.070312 4.246094 18.039062 3.9375 17.789062 C 3.628906 17.539062 3.472656 17.109375 3.539062 16.6875 L 4.304688 11.535156 L 1.050781 7.941406 C 0.78125 7.640625 0.683594 7.195312 0.804688 6.789062 C 0.921875 6.382812 1.230469 6.089844 1.605469 6.03125 L 6.09375 5.285156 L 8.105469 0.632812 C 8.273438 0.246094 8.621094 0 9.003906 0 C 9.386719 0 9.738281 0.246094 9.902344 0.632812 Z M 11.914062 5.285156 "/>
</g>
</svg>
