<svg xmlns="http://www.w3.org/2000/svg" width="px" height="20" viewBox="0 0 20 20"><path d="M17.945 5.926c.012.18.012.355.012.535 0 5.418-4.125 11.66-11.664 11.66-2.32 0-4.477-.672-6.293-1.84.328.04.648.051.988.051a8.217 8.217 0 005.09-1.75 4.108 4.108 0 01-3.832-2.844 4.455 4.455 0 001.852-.074A4.104 4.104 0 01.813 7.641V7.59c.546.305 1.18.492 1.851.52a4.1 4.1 0 01-1.27-5.485 11.662 11.662 0 008.454 4.293 4.726 4.726 0 01-.102-.941 4.097 4.097 0 014.098-4.098c1.18 0 2.246.496 2.996 1.293a8.033 8.033 0 002.601-.988 4.104 4.104 0 01-1.8 2.257A8.26 8.26 0 0020 3.81a8.814 8.814 0 01-2.055 2.117zm0 0" id="surface1"/></svg>